<?xml version="1.0"?>
<svg xmlns="http://www.w3.org/2000/svg" xmlns:xlink="http://www.w3.org/1999/xlink" xmlns:svgjs="http://svgjs.com/svgjs" version="1.1" width="512" height="512" x="0" y="0" viewBox="0 0 32 32" style="enable-background:new 0 0 512 512" xml:space="preserve" class=""><g><path xmlns="http://www.w3.org/2000/svg" d="m21.343 5-10.05 10.05a1 1 0 0 0 -.293.707v4.243a1 1 0 0 0 1 1h4.243a1 1 0 0 0 .707-.293l10.05-10.05z" fill="#ffffff" data-original="#000000" class=""/><path xmlns="http://www.w3.org/2000/svg" d="m29.828 2.172a4.093 4.093 0 0 0 -5.656 0l-1.414 1.414 5.656 5.656 1.414-1.414a4.088 4.088 0 0 0 0-5.656z" fill="#ffffff" data-original="#000000" class=""/><path xmlns="http://www.w3.org/2000/svg" d="m15 31a14 14 0 1 1 3.017-27.676 1 1 0 1 1 -.434 1.952 11.973 11.973 0 1 0 9.141 9.141 1 1 0 0 1 1.952-.434 14.02 14.02 0 0 1 -13.676 17.017z" fill="#ffffff" data-original="#000000" class=""/></g></svg>
